# xmcd CD database file
# Copyright (C) 1995-1998 Ti Kan
#
# Track frame offsets:
#	150
#	11935
#	24440
#	48765
#	63487
#	88192
#	102227
#	125622
#	137337
#	154507
#	168880
#	182632
#	195372
#
# Disc length: 2919 seconds
#
# Revision: 1
# Processed by: cddbd v1.4b42PL1 Copyright (c) Steve Scherf et al.
# Submitted via: CDex 1.30Release
#
DISCID=9e0b650d
DTITLE=King Pleasure And The Biscuit Boys - Blues and Rhythm Review Volume One
DYEAR=1995
DGENRE=Blues
TTITLE0=Kidney Stew Blues
TTITLE1=What More Do You Want Me To Do
TTITLE2=Blues For My Baby
TTITLE3=That's The Way To Treat Your Woman
TTITLE4=Since I Fell For You
TTITLE5=Let The Good Times Roll
TTITLE6=Fools Paradise
TTITLE7=What Can I Do?
TTITLE8=Haravard Blues
TTITLE9=Now Baby Or Never
TTITLE10=So Tired
TTITLE11=Tear Drops From My Eyes
TTITLE12=Goin' To Chicago
EXTD=YEAR: 1995 ID3G:   0
EXTT0=
EXTT1=
EXTT2=
EXTT3=
EXTT4=
EXTT5=
EXTT6=
EXTT7=
EXTT8=
EXTT9=
EXTT10=
EXTT11=
EXTT12=
PLAYORDER=
